<svg xmlns="http://www.w3.org/2000/svg" width="512" height="512" viewBox="0 0 512 512"><path fill-rule="evenodd" d="M375.898 88.34c-54.777 24.703-98.411 63.365-140.127 124.16-36.485 53.172-47.941 88.835-36.561 113.817 1.488 3.265 1.888 5.248 1.242 6.154-.523.735-3.014 4.192-5.534 7.683-37.607 52.086-49.191 68.434-50.001 70.564-.854 2.247-.492 2.996 3.1 6.413 4.639 4.413 7.721 4.881 10.666 1.619 2.087-2.312 18.631-25.245 34.807-48.25 20.778-29.549 20.816-29.598 22.443-28.935 3.831 1.563 13.863 1.603 19.807.08 13.265-3.398 23.523-9.931 38.62-24.596 28.315-27.503 59.555-71.236 81.112-113.549 16.762-32.902 27.37-66.162 30.457-95.5 1.693-16.097 1.92-24.001.687-23.995-.614.003-5.437 1.953-10.718 4.335M364 102.248c-29.584 15.772-51.526 32.26-75.022 56.374-35.484 36.418-70.118 88.21-81.74 122.234-3.404 9.966-3.639 11.445-3.687 23.218-.046 11.271.2 13.109 2.37 17.75 1.331 2.847 2.784 5.176 3.227 5.176s1.432-1.012 2.197-2.25 5.115-8.325 9.666-15.75 10.983-17.775 14.294-23 8.721-13.775 12.023-19c26.529-41.977 60.939-90.58 88.498-125 7.672-9.582 23.964-29.074 25.074-30 1.936-1.614 12.126-13.979 11.435-13.875-.459.069-4.21 1.924-8.335 4.123m8 5.505c-36.02 42.171-58.223 71.115-90.327 117.747-10.374 15.068-24.088 36.359-46.377 72-23.643 37.805-22.941 35.776-12.817 37.041 15.433 1.928 34.068-8.463 54.447-30.36 43.393-46.626 81.352-111.924 95.062-163.529 3.128-11.772 7.331-35.634 6.816-38.698-.224-1.335-2.013.19-6.804 5.799M197.214 348.25a4265 4265 0 0 1-18.139 25.25c-24.17 33.367-27.15 37.826-26.01 38.925 1.263 1.218 2.986-.764 11.988-13.784 3.096-4.478 11.505-16.326 18.686-26.33C206.895 340.053 208.829 337 206.106 337c-.492 0-4.493 5.063-8.892 11.25"/></svg>