<?xml version="1.0" encoding="UTF-8"?>
<!-- Generated by Pixelmator Pro 3.6.6 -->
<svg width="512" height="512" viewBox="0 0 512 512" xmlns="http://www.w3.org/2000/svg">
    <path id="Path" fill="#000000" fill-rule="evenodd" stroke="none" d="M 416.572815 27.125427 C 339.171753 62.031281 277.515991 116.66153 218.570404 202.566132 C 167.016327 277.69928 150.828766 328.091858 166.908966 363.391907 C 169.01152 368.005463 169.576736 370.807495 168.66391 372.087708 C 167.924911 373.126221 164.405075 378.011047 160.844269 382.943909 C 107.704788 456.542511 91.336349 479.642609 90.191811 482.652313 C 88.985085 485.827393 89.496597 486.885742 94.572159 491.71405 C 101.127174 497.949707 105.482109 498.610992 109.64344 494.001709 C 112.592422 490.734802 135.969437 458.330017 158.826477 425.823456 C 188.186234 384.070068 188.239914 384.000854 190.538895 384.937683 C 195.952194 387.14624 210.127625 387.202759 218.526611 385.05072 C 237.27034 380.249298 251.765106 371.018005 273.097473 350.296082 C 313.107147 311.433716 357.249969 249.638092 387.710419 189.848938 C 411.395508 143.357758 426.384857 96.360657 430.746796 54.905426 C 433.139099 32.160034 433.459839 20.991486 431.71756 21 C 430.850006 21.004211 424.034973 23.759613 416.572815 27.125427 M 399.760681 46.77771 C 357.957855 69.063873 326.953369 92.361786 293.753021 126.435394 C 243.613388 177.894745 194.67482 251.077972 178.252686 299.154572 C 173.442764 313.236755 173.110703 315.326599 173.042862 331.962128 C 172.977875 347.888275 173.325485 350.485413 176.391739 357.043243 C 178.272461 361.066101 180.325592 364.357056 180.951538 364.357056 C 181.57753 364.357056 182.975006 362.927063 184.055969 361.177734 C 185.136917 359.428406 191.283569 349.414307 197.714218 338.922668 C 204.144882 328.431 213.233429 313.806213 217.911942 306.423157 C 222.590454 299.040131 230.234909 286.958801 234.900696 279.575775 C 272.386719 220.261414 321.008789 151.58429 359.950226 102.948151 C 370.790924 89.408569 393.81189 61.865967 395.38031 60.557495 C 398.115936 58.276886 412.514618 40.804871 411.538208 40.951843 C 410.889648 41.049347 405.589417 43.670502 399.760681 46.77771 M 411.06485 54.556396 C 360.167847 114.144928 328.794556 155.043365 283.430908 220.935394 C 268.772247 242.226776 249.394043 272.311462 217.899231 322.672913 C 184.491165 376.092163 185.483109 373.225159 199.788544 375.012604 C 221.595688 377.736938 247.927338 363.05423 276.723297 332.113312 C 338.038513 266.229797 391.675415 173.962372 411.047913 101.043365 C 415.467834 84.409302 421.406769 50.691803 420.679047 46.362305 C 420.362518 44.475952 417.834625 46.630737 411.06485 54.556396 M 164.088562 394.383728 C 155.588333 406.30777 147.044693 418.200775 138.457764 430.0625 C 104.305046 477.210785 100.094254 483.511444 101.705093 485.064331 C 103.489738 486.785431 105.92437 483.984833 118.644379 465.58728 C 123.019104 459.259766 134.901199 442.518311 145.048096 428.382446 C 177.768021 382.801208 180.500793 378.487244 176.653152 378.487244 C 175.957932 378.487244 170.304443 385.641357 164.088562 394.383728"/>
</svg>
