<?xml version="1.0" encoding="UTF-8"?>
<!-- Generated by Pixelmator Pro 3.6.6 -->
<svg width="600" height="600" viewBox="0 0 600 600" xmlns="http://www.w3.org/2000/svg">
    <path id="Circle" fill="#f5f5f5" fill-rule="evenodd" stroke="none" d="M 600 300 C 600 134.314575 465.685425 0 300 0 C 134.314575 0 0 134.314575 0 300 C 0 465.685425 134.314575 600 300 600 C 465.685425 600 600 465.685425 600 300 Z"/>
    <path id="Path" fill="#18181b" fill-rule="evenodd" stroke="none" d="M 430.374207 105.376892 C 365.331299 134.709534 313.519714 180.61731 263.985626 252.806061 C 220.662857 315.943146 207.059875 358.289856 220.572647 387.953766 C 222.339493 391.830688 222.814468 394.185364 222.047379 395.261169 C 221.426376 396.13385 218.468536 400.23877 215.476257 404.384033 C 170.821228 466.231567 157.066238 485.643433 156.104446 488.172577 C 155.090393 490.840729 155.520233 491.730103 159.785416 495.787476 C 165.293823 501.027527 168.95343 501.583252 172.450348 497.7099 C 174.928482 494.9646 194.573044 467.733704 213.78064 440.417236 C 238.452698 405.330383 238.497803 405.272217 240.429718 406.059448 C 244.978714 407.915405 256.890839 407.962891 263.948822 406.154449 C 279.69986 402.119629 291.88031 394.362244 309.806671 376.948853 C 343.428253 344.291412 380.523071 292.362305 406.120087 242.119324 C 426.023529 203.051117 438.619598 163.557739 442.285095 128.721436 C 444.295441 109.607635 444.564972 100.222321 443.100861 100.229462 C 442.371826 100.233002 436.644928 102.548462 430.374207 105.376892 M 416.246338 121.891418 C 381.11792 140.619263 355.063751 160.197357 327.164276 188.830627 C 285.030151 232.073792 243.905289 293.572296 230.105179 333.972809 C 226.063232 345.80658 225.78418 347.562744 225.727173 361.542175 C 225.672562 374.925476 225.964676 377.107971 228.541367 382.618744 C 230.121796 385.999298 231.847122 388.764832 232.373123 388.764832 C 232.89917 388.764832 234.073517 387.563141 234.981888 386.093109 C 235.890244 384.623108 241.055496 376.207886 246.459412 367.391357 C 251.863327 358.574829 259.500763 346.285095 263.432281 340.080872 C 267.3638 333.876648 273.78772 323.724274 277.708557 317.52005 C 309.209412 267.676025 350.068298 209.964172 382.792175 169.093445 C 391.902008 157.715668 411.247375 134.570618 412.565369 133.471069 C 414.864227 131.554596 426.963959 116.872223 426.143433 116.995728 C 425.598419 117.077667 421.14444 119.280304 416.246338 121.891418 M 425.745667 128.428131 C 382.975067 178.502502 356.610962 212.870941 318.490234 268.242401 C 306.172028 286.134308 289.887848 311.415558 263.4216 353.736115 C 235.347595 398.626221 236.181168 396.21698 248.202545 397.719055 C 266.527863 400.008423 288.655304 387.669983 312.853607 361.66922 C 364.378998 306.304932 409.452026 228.769287 425.731415 167.492798 C 429.445648 153.514587 434.43634 125.180573 433.824799 121.542328 C 433.558807 119.957153 431.43454 121.767914 425.745667 128.428131 M 218.20256 413.997314 C 211.059509 424.017517 203.879974 434.011627 196.664063 443.979462 C 167.96431 483.599884 164.425827 488.894531 165.779465 490.199493 C 167.279175 491.645813 169.325089 489.292358 180.01416 473.832214 C 183.690399 468.514984 193.675354 454.446533 202.202164 442.567657 C 229.697891 404.264099 231.994339 400.638916 228.761032 400.638916 C 228.176819 400.638916 223.42598 406.650757 218.20256 413.997314"/>
</svg>
